<?xml version="1.0" standalone="no"?>
<!DOCTYPE svg PUBLIC "-//W3C//DTD SVG 20010904//EN"
 "http://www.w3.org/TR/2001/REC-SVG-20010904/DTD/svg10.dtd">
<svg version="1.0" xmlns="http://www.w3.org/2000/svg"
 width="382.000000pt" height="382.000000pt" viewBox="0 0 382.000000 382.000000"
 preserveAspectRatio="xMidYMid meet">
<metadata>
Created by potrace 1.11, written by Peter Selinger 2001-2013
</metadata>
<g transform="translate(0.000000,382.000000) scale(0.100000,-0.100000)"
fill="#000000" stroke="none">
<path d="M1768 3209 c-275 -32 -514 -153 -718 -365 -163 -169 -253 -340 -302
-569 -16 -78 -16 -343 1 -420 37 -175 100 -316 201 -450 203 -269 472 -433
787 -480 407 -61 789 67 1071 359 131 136 206 259 262 426 117 347 55 732
-164 1024 -118 156 -300 303 -473 382 -184 85 -433 119 -665 93z m-8 -984 l0
-645 -25 0 -25 0 0 108 -1 107 -18 -35 c-36 -66 -100 -128 -169 -162 -58 -29
-78 -33 -162 -36 -78 -3 -105 0 -152 18 -112 41 -207 158 -243 296 -20 77 -20
242 -1 328 54 229 229 357 448 326 120 -17 227 -91 277 -192 l21 -43 0 288 0
287 25 0 25 0 0 -645z m706 283 c61 -22 136 -85 175 -147 l28 -44 3 94 c3 89
4 94 26 97 l23 4 -3 -515 -3 -514 -35 -69 c-28 -55 -46 -76 -90 -106 -68 -46
-149 -68 -255 -68 -130 0 -231 35 -292 101 -30 33 -61 106 -65 154 -3 34 0 40
18 43 18 3 22 -4 28 -38 19 -118 99 -187 242 -210 69 -11 171 -2 229 20 56 21
111 69 140 122 30 53 30 54 33 233 l2 180 -19 -36 c-28 -50 -104 -117 -168
-146 -73 -34 -204 -43 -284 -20 -201 59 -314 290 -266 543 19 99 54 170 114
235 101 108 269 143 419 87z"/>
<path d="M1255 2477 c-66 -22 -99 -43 -144 -92 -51 -56 -87 -129 -106 -222
-48 -226 44 -460 210 -535 38 -17 69 -22 130 -23 71 0 88 4 147 33 141 69 218
213 218 409 0 204 -73 346 -211 407 -72 33 -182 43 -244 23z"/>
<path d="M2214 2470 c-158 -52 -256 -226 -241 -430 11 -144 61 -246 151 -307
60 -41 114 -56 196 -55 142 1 271 89 320 218 28 74 38 218 20 295 -53 225
-245 345 -446 279z"/>
</g>
</svg>
